<?xml version="1.0" encoding="UTF-8"?>
<svg version="1.1" xmlns="http://www.w3.org/2000/svg" width="798" height="302">
<path d="M0 0 C2.21800879 1.43097341 2.78887977 2.30901854 3.55102539 4.8034668 C4.04143948 7.20273571 4.17695523 9.44674834 4.24609375 11.89453125 C4.27775635 12.84384521 4.30941895 13.79315918 4.34204102 14.77124023 C4.37354248 15.77485596 4.40504395 16.77847168 4.4375 17.8125 C4.77201771 26.99186838 5.52464471 35.93301067 7 45 C12.47213253 44.49734605 12.47213253 44.49734605 16.9375 41.4375 C20.45649342 36.93470197 22.80248885 31.67289404 25.19702148 26.51147461 C26.83890735 23.02417014 27.72583058 21.18277961 31 19 C34.64633962 19.13022642 37.08441859 19.28470202 40 21.5625 C41.52593856 25.28197525 41.11192123 28.25590366 40 32 C34.51686532 44.87853696 25.42534685 55.49196172 13.125 62.125 C10.06588078 63.73647686 10.06588078 63.73647686 8.5 65.75 C7.39800862 70.70896119 8.17069889 74.68455685 10.8125 78.875 C14.27421082 82.23780479 17.12510763 83.3114435 21.9375 83.4375 C25.69317831 83.34900095 26.79789876 83.1389446 30 80.9375 C34.37326469 74.51426749 34.53021079 66.96213051 35.2421875 59.42578125 C36.08205779 55.62904803 36.91865993 54.30103769 40 52 C42.9375 51.4375 42.9375 51.4375 46 52 C49.10164769 54.55024365 50.72566416 56.17699247 52 60 C52.92052736 72.62184631 50.74036882 81.97049955 43 92 C42.06829135 93.02612179 41.1313422 94.04752766 40.1875 95.0625 C37.45714507 98.72897662 36.56512865 101.44664119 37 106 C38.67556218 111.38923509 41.20045234 114.94970382 46 118 C49.47164378 119.05029532 53.00160679 119.70021955 56.5625 120.375 C65.18090644 122.17689664 72.37468514 124.50221483 80 129 C91.39715874 135.50448725 101.20344587 139.29622781 114.375 140.9375 C119.71146398 141.64431642 123.02158768 142.35312204 127 146 C129.47394086 149.71091129 129.2601627 151.32400905 128.6640625 155.59375 C127.48351256 159.87150744 124.9799209 162.79453463 122 166 C121.54109375 166.51175781 121.0821875 167.02351562 120.609375 167.55078125 C105.93910389 181.87359857 82.44289808 185.27103095 62.92578125 185.1015625 C57.60378194 184.9168202 52.3032164 184.47214645 47 184 C47.70125 184.9075 48.4025 185.815 49.125 186.75 C49.51945313 187.26046875 49.91390625 187.7709375 50.3203125 188.296875 C55.37918855 193.42634001 60.93537897 194.99709405 67.78515625 196.24609375 C69.734375 196.6796875 69.734375 196.6796875 73 198 C78.63508884 209.00915177 74.14665391 225.23837293 71.00390625 236.6015625 C66.63815257 249.74414278 60.06847638 262.49733635 51 273 C50.38253906 273.81210937 49.76507813 274.62421875 49.12890625 275.4609375 C34.62203036 292.76271609 7.1794704 299.25003491 -14.16796875 301.75390625 C-52.64170062 304.22469637 -89.52285528 294.88364121 -119 269 C-119.79148437 268.32839844 -120.58296875 267.65679687 -121.3984375 266.96484375 C-130.80779059 258.78731449 -141.16484316 249.18405061 -147 238 C-147 237.34 -147 236.68 -147 236 C-135.773587 232.45854479 -124.63866127 229.52848445 -113 227.6875 C-111.4996521 227.44918457 -111.4996521 227.44918457 -109.96899414 227.20605469 C-98.54317907 225.49608154 -87.13707056 224.86922138 -75.59375 224.7890625 C-73.27994066 224.76100918 -70.96613866 224.73234484 -68.65234375 224.703125 C-65.07177829 224.66190703 -61.49135247 224.62493648 -57.91064453 224.59863281 C-31.2913534 224.85542743 -31.2913534 224.85542743 -8.8203125 211.91796875 C1.45355831 200.18496843 7.03271541 184.25039013 9 169 C9.09498779 168.27039063 9.18997559 167.54078125 9.2878418 166.7890625 C9.91920842 161.23442258 10.55702716 155.44010869 9 150 C5.23049431 146.06394767 0.87605916 144.22055277 -4 142 C-14.82237845 134.65342193 -19.37280676 119.27542826 -22.40625 107.20703125 C-22.93144273 104.37029947 -23.12982784 101.87244104 -23 99 C-22.46922852 99.17958252 -21.93845703 99.35916504 -21.39160156 99.54418945 C-17.27049176 100.92936508 -13.14236695 102.27247121 -8.984375 103.54296875 C1.67083156 106.85857038 10.88130449 110.48664606 20 117 C19.7834375 115.67935547 19.7834375 115.67935547 19.5625 114.33203125 C19.376875 113.17058594 19.19125 112.00914063 19 110.8125 C18.814375 109.66394531 18.62875 108.51539062 18.4375 107.33203125 C18.06510523 104.49584607 17.91403979 101.85280436 18 99 C17.40574219 98.85304688 16.81148437 98.70609375 16.19921875 98.5546875 C5.44948063 95.64573815 -2.84517881 90.57136921 -11.1015625 83.1484375 C-18.60959289 77.58318586 -26.73969755 76.02705323 -35.8125 74.5 C-52.54085616 71.65470775 -72.0574139 66.9364084 -82.796875 52.6015625 C-89.31064589 42.88657941 -93.70778672 32.6648442 -95 21 C-95.09539062 20.15953125 -95.19078125 19.3190625 -95.2890625 18.453125 C-95.54258227 14.37012237 -95.55496124 12.66921796 -92.875 9.4375 C-89.51364699 7.7568235 -87.70532093 7.36930708 -84 8 C-79.40376807 11.3363952 -79.03387045 15.23651152 -78.125 20.5 C-75.6529232 32.93908072 -70.90480403 44.61800577 -60.0625 52 C-56.15378407 53.27631541 -53.0978276 53.2119566 -49 53 C-49 49.22883066 -50.18942228 47.80317906 -52.1875 44.625 C-55.95979771 38.32511009 -58.61270889 31.92873942 -61 25 C-61.433125 23.7625 -61.86625 22.525 -62.3125 21.25 C-63.42325665 15.99915039 -64.26785109 11.12998984 -61.4375 6.375 C-59 5 -59 5 -55.5625 4.875 C-51.24912605 6.23711809 -49.35357721 8.28569352 -47 12 C-45.63797981 15.11722268 -44.63411969 18.31651366 -43.625 21.5625 C-38.96258805 35.59169373 -31.97238724 47.30334128 -23 59 C-22.57009766 59.57000732 -22.14019531 60.14001465 -21.69726562 60.72729492 C-18.99628561 64.31010261 -18.99628561 64.31010261 -14.75 65.4375 C-12.09539142 65.29113396 -12.09539142 65.29113396 -11 64 C-10.8960367 61.36422457 -10.85969525 58.76096979 -10.875 56.125 C-10.87693359 55.31635498 -10.87886719 54.50770996 -10.88085938 53.67456055 C-10.92000882 48.03975985 -11.15926537 42.43611852 -11.5 36.8125 C-11.9255781 29.39807048 -12.20057574 21.98855824 -12.3125 14.5625 C-12.34214844 13.57290283 -12.37179688 12.58330566 -12.40234375 11.5637207 C-12.45971698 4.68550718 -12.45971698 4.68550718 -10.234375 1.3671875 C-6.52976899 -0.89961688 -4.29822648 -0.47758072 0 0 Z M48 136 C46.62624631 137.15645826 46.62624631 137.15645826 46.75 140.3125 C46.7777808 143.87035486 46.7777808 143.87035486 48.0625 146.375 C50.9283235 148.77859391 53.31939225 148.87085587 57 149 C59.684756 148.2018293 60.6425575 147.47659001 62.3125 145.25 C63.25878885 142.15305467 62.85736616 140.09970844 62 137 C60.30185085 134.40808814 59.1179967 134.03591204 56.125 133.125 C52.41157001 132.9764628 50.94103647 133.81523005 48 136 Z " fill="#4D9E4B" transform="translate(147,0)"/>
<path d="M0 0 C1.175625 0.8971875 1.175625 0.8971875 2.375 1.8125 C3.035 -0.1675 3.695 -2.1475 4.375 -4.1875 C13.285 -4.1875 22.195 -4.1875 31.375 -4.1875 C31.46554956 8.02624278 31.53885939 20.23976079 31.58224869 32.45376396 C31.60307863 38.12587888 31.63131241 43.79775122 31.67675781 49.46972656 C31.72037924 54.9486541 31.74417163 60.42734905 31.75450897 65.90643692 C31.76187112 67.99152408 31.77624745 70.07659924 31.79792023 72.16158676 C31.82717074 75.09351361 31.83094697 78.02449253 31.82910156 80.95654297 C31.84348267 81.80891037 31.85786377 82.66127777 31.87268066 83.53947449 C31.80546723 93.47838394 27.77455436 101.39272683 21.375 108.8125 C20.86195313 109.43125 20.34890625 110.05 19.8203125 110.6875 C12.4134339 118.90948964 1.69981134 122.35109456 -9.09765625 123.03125 C-22.18970417 123.35089308 -34.09023273 121.27087195 -44.25 112.5625 C-53.4428944 101.91809595 -53.4428944 101.91809595 -55.625 95.8125 C-50.11966106 93.81392318 -44.53352512 92.51287649 -38.8125 91.3125 C-37.86568359 91.08046875 -36.91886719 90.8484375 -35.94335938 90.609375 C-28.91497795 89.1775781 -28.91497795 89.1775781 -25.13793945 91.03662109 C-23.6086874 92.11713199 -22.10251306 93.2312044 -20.6237793 94.37988281 C-17.00134975 96.97624492 -13.6241798 96.50392991 -9.3671875 96.265625 C-5.54930703 95.63475017 -3.39507481 94.51154725 -0.625 91.8125 C2.62360472 87.04787975 2.66288265 83.37823129 2.375 77.8125 C0.92867187 78.55306641 0.92867187 78.55306641 -0.546875 79.30859375 C-1.82280852 79.95594237 -3.09885621 80.60306599 -4.375 81.25 C-5.32632813 81.73823242 -5.32632813 81.73823242 -6.296875 82.23632812 C-15.84728995 87.06127734 -26.95596426 87.24707747 -37.34765625 85.01171875 C-48.14279552 81.26751669 -55.67310629 74.35963664 -61.37109375 64.5625 C-64.83365272 56.9686012 -66.15403616 50.3544905 -66.0625 42 C-66.05492676 41.03094727 -66.04735352 40.06189453 -66.03955078 39.06347656 C-65.87097086 31.72717388 -64.91352713 25.45102206 -61.625 18.8125 C-61.20089844 17.9359375 -60.77679687 17.059375 -60.33984375 16.15625 C-54.07495926 4.56883134 -44.98952714 -0.74726583 -32.77734375 -4.80078125 C-21.92365911 -6.75089882 -9.39285782 -6.09559595 0 0 Z M-33.5 28.75 C-37.1544018 34.01663789 -38.73015555 39.40710864 -37.625 45.8125 C-35.52530644 51.57364267 -33.06046543 56.63076414 -27.625 59.8125 C-21.24477685 62.78004565 -13.93211438 62.85246112 -7.3125 60.5625 C-1.87105343 58.2147791 1.70448042 55.15353915 4.375 49.8125 C6.06686661 44.13769741 5.9976159 38.74588623 4.1875 33.125 C1.33521058 27.9121952 -1.59799043 23.40026496 -7.41015625 21.2890625 C-18.13941122 18.98047501 -26.1268379 20.67361723 -33.5 28.75 Z " fill="#4C9E4A" transform="translate(612.625,114.1875)"/>
<path d="M0 0 C1.175625 0.8971875 1.175625 0.8971875 2.375 1.8125 C3.035 -0.1675 3.695 -2.1475 4.375 -4.1875 C13.285 -4.1875 22.195 -4.1875 31.375 -4.1875 C31.375 25.5125 31.375 55.2125 31.375 85.8125 C22.465 85.8125 13.555 85.8125 4.375 85.8125 C3.385 82.3475 3.385 82.3475 2.375 78.8125 C1.82714844 79.22242188 1.27929688 79.63234375 0.71484375 80.0546875 C-8.66545168 86.43023789 -19.77071011 87.86690566 -30.94140625 86.40625 C-42.86194865 83.76880831 -51.42693072 77.70453208 -58.4375 67.8125 C-65.44853815 56.07308728 -67.36852901 42.00701051 -64.4375 28.75 C-61.15011884 16.97021751 -55.27801076 7.21699016 -44.875 0.4375 C-31.5488091 -6.87565354 -13.15112867 -8.59410967 0 0 Z M-32.4375 27.8125 C-36.79953673 32.89672825 -36.9694863 37.19341641 -36.90625 43.73046875 C-36.38945467 49.39368421 -34.28909974 53.14840026 -30.3125 57.125 C-24.56903716 60.73136038 -19.46116383 62.75541915 -12.625 61.8125 C-5.33696443 60.13708952 -0.02763538 56.14518778 4.3125 50.125 C6.28305015 43.98152012 6.45819598 37.52423214 3.9375 31.5 C0.83324616 26.07313897 -4.81513819 22.7491206 -10.625 20.8125 C-20.01707117 20.10775584 -25.91535681 20.65918166 -32.4375 27.8125 Z " fill="#4EA04B" transform="translate(398.625,114.1875)"/>
<path d="M0 0 C11.37124163 8.72314427 16.06961967 20.92295683 18.28125 34.75 C18.51953034 37.84331206 18.48843911 40.64216341 18.28125 43.75 C17.28125 44.75 17.28125 44.75 14.65538025 44.87025452 C13.48511795 44.86803391 12.31485565 44.86581329 11.10913086 44.86352539 C10.46524918 44.86367142 9.82136749 44.86381744 9.15797424 44.8639679 C7.02064697 44.86326885 4.88340587 44.85547691 2.74609375 44.84765625 C1.26778715 44.84579204 -0.21052007 44.84436815 -1.68882751 44.84336853 C-5.58673802 44.83954359 -9.48461149 44.82971352 -13.38250732 44.81866455 C-17.35721333 44.80844992 -21.33192529 44.8038708 -25.30664062 44.79882812 C-33.110694 44.78809122 -40.91471682 44.77101509 -48.71875 44.75 C-47.78694578 46.20028994 -46.84806856 47.64603704 -45.90625 49.08984375 C-45.38417969 49.89542725 -44.86210938 50.70101074 -44.32421875 51.53100586 C-41.93158587 54.83797669 -39.62017244 56.71687071 -35.71875 57.75 C-28.95329765 58.59771933 -22.95410806 59.09257251 -17.28125 54.9375 C-14.09688122 52.8205174 -13.07143505 52.68182736 -9.22265625 53.42578125 C-5.9414781 54.47017256 -2.75538386 55.74014849 0.43310547 57.03662109 C3.14299316 58.08263058 5.91100987 58.82705323 8.71875 59.5625 C9.60433594 59.79582031 10.48992187 60.02914062 11.40234375 60.26953125 C12.33240234 60.50736328 12.33240234 60.50736328 13.28125 60.75 C9.85034851 68.91252938 1.17002838 75.98245477 -6.71875 79.75 C-19.66675529 84.99560214 -34.55682129 85.74170302 -47.65234375 80.59765625 C-59.96710628 74.93443425 -68.1587742 66.77154377 -73.74609375 54.4921875 C-77.67700525 43.80445579 -77.13010225 30.16462728 -72.71875 19.75 C-72.46351563 19.08097656 -72.20828125 18.41195312 -71.9453125 17.72265625 C-67.11941712 6.54340319 -57.70417799 -0.87884306 -46.7578125 -5.5 C-30.89805863 -11.1390236 -14.16078858 -9.19531726 0 0 Z M-41.71875 19.75 C-42.6675 20.61625 -43.61625 21.4825 -44.59375 22.375 C-46.94101495 24.46726591 -46.94101495 24.46726591 -46.71875 26.75 C-34.83875 26.75 -22.95875 26.75 -10.71875 26.75 C-15.44888159 19.56657512 -15.44888159 19.56657512 -22.71875 15.75 C-33.02934862 14.85953518 -33.02934862 14.85953518 -41.71875 19.75 Z " fill="#4E9F4C" transform="translate(779.71875,117.25)"/>
<path d="M0 0 C5.55146411 5.14461922 9.00838817 12.87004536 9.30775452 20.39959717 C9.30553391 21.58096252 9.30331329 22.76232788 9.30102539 23.97949219 C9.30117142 24.63356552 9.30131744 25.28763885 9.3014679 25.96153259 C9.30077341 28.11501426 9.29300283 30.26840852 9.28515625 32.421875 C9.28329042 33.91831414 9.28186729 35.41475388 9.28086853 36.91119385 C9.27705635 40.84358415 9.26723717 44.77593732 9.25616455 48.70831299 C9.24592249 52.72350563 9.24136492 56.7387043 9.23632812 60.75390625 C9.22561372 68.62762307 9.20802745 76.50130264 9.1875 84.375 C-0.0525 84.375 -9.2925 84.375 -18.8125 84.375 C-18.84988281 80.47429687 -18.88726562 76.57359375 -18.92578125 72.5546875 C-18.97200832 68.77175324 -19.02323788 64.98891746 -19.07495117 61.20605469 C-19.10818038 58.57948809 -19.1362185 55.95285043 -19.15893555 53.32617188 C-19.19251728 49.54786939 -19.24483753 45.77021695 -19.30078125 41.9921875 C-19.30717117 40.82009735 -19.3135611 39.6480072 -19.32014465 38.44039917 C-19.447755 30.48901879 -19.447755 30.48901879 -22.8125 23.375 C-26.05956405 20.43234821 -28.72602651 19.456998 -33.125 19.125 C-37.24254024 19.40415527 -39.3879061 20.0919374 -42.8125 22.375 C-46.83324015 27.48242668 -47.94148923 31.23143869 -47.92602539 37.60253906 C-47.92591209 39.16370453 -47.92591209 39.16370453 -47.92579651 40.75640869 C-47.92063522 41.87320007 -47.91547394 42.98999146 -47.91015625 44.140625 C-47.90803383 45.86342682 -47.90803383 45.86342682 -47.90586853 47.62103271 C-47.90027143 51.28904831 -47.88771944 54.95700285 -47.875 58.625 C-47.86998463 61.11197829 -47.86542178 63.59895753 -47.86132812 66.0859375 C-47.8511539 72.18233411 -47.83157775 78.27859871 -47.8125 84.375 C-57.3825 84.375 -66.9525 84.375 -76.8125 84.375 C-76.8125 54.675 -76.8125 24.975 -76.8125 -5.625 C-67.2425 -5.625 -57.6725 -5.625 -47.8125 -5.625 C-47.8125 -3.315 -47.8125 -1.005 -47.8125 1.375 C-47.00425781 0.88128906 -46.19601562 0.38757813 -45.36328125 -0.12109375 C-44.29464844 -0.76175781 -43.22601563 -1.40242188 -42.125 -2.0625 C-40.54138672 -3.01962891 -40.54138672 -3.01962891 -38.92578125 -3.99609375 C-27.15906217 -10.15258291 -10.3520145 -7.76952901 0 0 Z " fill="#4D9F4A" transform="translate(523.8125,115.625)"/>
<path d="M0 0 C1.06863281 -0.00128906 2.13726563 -0.00257812 3.23828125 -0.00390625 C4.35332031 -0.00003906 5.46835937 0.00382812 6.6171875 0.0078125 C7.73996094 0.00394531 8.86273437 0.00007813 10.01953125 -0.00390625 C11.61861328 -0.00197266 11.61861328 -0.00197266 13.25 0 C14.2311377 0.00112793 15.21227539 0.00225586 16.22314453 0.00341797 C18.4921875 0.1328125 18.4921875 0.1328125 19.4921875 1.1328125 C19.59029885 2.71203979 19.61850642 4.29565783 19.61917114 5.87792969 C19.62199097 6.90438599 19.62481079 7.93084229 19.62771606 8.98840332 C19.62569183 10.1240271 19.6236676 11.25965088 19.62158203 12.4296875 C19.62333435 13.61816284 19.62508667 14.80663818 19.62689209 16.03112793 C19.6305502 19.29964026 19.62967722 22.56811239 19.626513 25.83662415 C19.62398897 29.25013313 19.62632706 32.66363935 19.62789917 36.07714844 C19.62972074 41.81055181 19.62731489 47.54394233 19.62255859 53.27734375 C19.61711599 59.91487026 19.61887866 66.55236605 19.624385 73.18989182 C19.62891649 78.87905516 19.6295665 84.56820924 19.62694633 90.25737381 C19.62538376 93.6595027 19.62518925 97.06161714 19.62848282 100.46374512 C19.63100759 104.25449738 19.62717121 108.04518973 19.62158203 111.8359375 C19.62360626 112.97156128 19.62563049 114.10718506 19.62771606 115.27722168 C19.62348633 116.81690613 19.62348633 116.81690613 19.61917114 118.38769531 C19.61879412 119.28514465 19.61841709 120.18259399 19.61802864 121.10723877 C19.4921875 123.1328125 19.4921875 123.1328125 18.4921875 124.1328125 C16.50461722 124.23264308 14.5135123 124.26362003 12.5234375 124.265625 C11.31300781 124.26691406 10.10257813 124.26820313 8.85546875 124.26953125 C7.58058594 124.26566406 6.30570313 124.26179688 4.9921875 124.2578125 C3.71730469 124.26167969 2.44242188 124.26554687 1.12890625 124.26953125 C-0.08152344 124.26824219 -1.29195312 124.26695312 -2.5390625 124.265625 C-3.65861328 124.26449707 -4.77816406 124.26336914 -5.93164062 124.26220703 C-8.5078125 124.1328125 -8.5078125 124.1328125 -9.5078125 123.1328125 C-9.60750043 121.08652675 -9.63581106 119.03674917 -9.63720703 116.98803711 C-9.63893669 116.34235086 -9.64066635 115.69666462 -9.64244843 115.03141212 C-9.64683455 112.86596818 -9.64384586 110.70060133 -9.640625 108.53515625 C-9.64163954 107.00666785 -9.64297835 105.47817963 -9.6446228 103.94969177 C-9.64733228 99.84014231 -9.64284629 95.73063033 -9.63638306 91.62108612 C-9.63282847 89.08171984 -9.6311979 86.54235918 -9.63012695 84.00299072 C-9.61562778 56.37001778 -9.29238969 28.75577213 -8.5078125 1.1328125 C-5.41016597 0.10026366 -3.24632463 0.00372346 0 0 Z " fill="#53A451" transform="translate(671.5078125,75.8671875)"/>
<path d="M0 0 C3.97298213 3.91401817 4.61072545 7.01460442 5.046875 12.48828125 C5.10780334 13.19147995 5.16873169 13.89467865 5.23150635 14.6191864 C5.42092755 16.84928779 5.58580169 19.08041419 5.75 21.3125 C5.87468189 22.83151406 6.00096731 24.35039742 6.12890625 25.86914062 C6.43784156 29.57809561 6.72480621 33.28837133 7 37 C11.50413821 36.61476952 11.50413821 36.61476952 14.828125 33.85546875 C15.29734375 32.97503906 15.7665625 32.09460937 16.25 31.1875 C16.96929687 29.87845703 16.96929687 29.87845703 17.703125 28.54296875 C18.51269306 26.95553259 19.29836262 25.35540314 20.046875 23.73828125 C21 22 21 22 23 21 C26.63919918 20.60443487 28.34648787 20.50545028 31.3125 22.75 C33.06095198 25.08126931 33.67155086 26.14501904 34 29 C29.80693974 42.31098846 19.20647313 51.00470734 7.81640625 58.20703125 C4.05226485 60.60334318 0.52223247 63.26509008 -3 66 C-2.67 67.65 -2.34 69.3 -2 71 C4.17502799 71.425864 7.0284386 71.01956028 12 67 C12.84884766 66.20722656 12.84884766 66.20722656 13.71484375 65.3984375 C18.31484477 61.15073415 18.31484477 61.15073415 22.125 60.3125 C26.12230474 61.26837722 27.64683443 62.64852177 30 66 C30.23732902 70.27192227 29.24517463 73.11748364 26.75 76.5 C20.96299952 82.73866881 11.78471063 87.57027864 3.265625 88.203125 C-3.24404041 88.30431151 -8.17568768 88.01616174 -14 85 C-16.16184979 82.72728611 -17.60757686 80.78484629 -19 78 C-18.7756233 71.15651055 -16.93889444 65.77956521 -14.25390625 59.50390625 C-11.28030559 51.1944988 -10.70012755 43.20824089 -10.8125 34.4375 C-10.81749512 33.39625977 -10.82249023 32.35501953 -10.82763672 31.28222656 C-10.89513206 23.57828458 -11.29953403 15.93861431 -11.9765625 8.265625 C-11.99954972 5.06273961 -11.80311962 3.59276166 -10 1 C-6.61629141 -1.53778144 -3.94318941 -1.23224669 0 0 Z " fill="#49994A" transform="translate(223,25)"/>
<path d="M0 0 C9.57 0 19.14 0 29 0 C29 1.98 29 3.96 29 6 C28.34 5.67 27.68 5.34 27 5 C27 4.01 27 3.02 27 2 C18.75 2 10.5 2 2 2 C2 30.38 2 58.76 2 88 C10.25 88 18.5 88 27 88 C26.96519531 84.17148438 26.93039062 80.34296875 26.89453125 76.3984375 C26.87112618 72.68506618 26.85291493 68.97170311 26.83520508 65.25830078 C26.82013095 62.68013829 26.79966833 60.10200138 26.77368164 57.52392578 C26.73723914 53.81536539 26.72025948 50.10714446 26.70703125 46.3984375 C26.68380547 44.67311295 26.68380547 44.67311295 26.66011047 42.91293335 C26.65889468 37.11457265 26.74255062 32.8918098 30 28 C30.66 28 31.32 28 32 28 C32 27.34 32 26.68 32 26 C36.08172765 22.70828415 40.83854229 21.79702133 46 22 C46.99 22.66 47.98 23.32 49 24 C47.78763672 24.14695313 47.78763672 24.14695313 46.55078125 24.296875 C38.34046705 25.20283895 38.34046705 25.20283895 32 30 C28.7812414 36.80523525 28.60172848 42.70156745 28.70703125 50.15625 C28.71339851 51.87056213 28.71339851 51.87056213 28.71989441 53.61950684 C28.73660026 57.24658409 28.77423844 60.8730925 28.8125 64.5 C28.82755725 66.96874194 28.84124383 69.43749264 28.85351562 71.90625 C28.88391705 77.93789203 28.94265651 83.96831412 29 90 C19.43 90 9.86 90 0 90 C0 60.3 0 30.6 0 0 Z " fill="#468654" transform="translate(447,110)"/>
<path d="M0 0 C8.91 0 17.82 0 27 0 C27 29.7 27 59.4 27 90 C18.09 90 9.18 90 0 90 C0.33 89.01 0.66 88.02 1 87 C8.59 87 16.18 87 24 87 C24.33 58.95 24.66 30.9 25 2 C17.08 2 9.16 2 1 2 C1 3.65 1 5.3 1 7 C0.67 7 0.34 7 0 7 C0 4.69 0 2.38 0 0 Z " fill="#257B39" transform="translate(403,110)"/>
<path d="M0 0 C2.97 0.33 5.94 0.66 9 1 C9 1.33 9 1.66 9 2 C6.69 2 4.38 2 2 2 C2 41.27 2 80.54 2 121 C1.34 121 0.68 121 0 121 C0 81.07 0 41.14 0 0 Z " fill="#0C5F26" transform="translate(663,77)"/>
<path d="M0 0 C5.60687665 4.33432615 10.92521729 9.99317498 13.2890625 16.76953125 C12.84765625 18.9375 12.84765625 18.9375 12.2890625 20.76953125 C11.30686623 19.0003765 10.32840891 17.22914556 9.3515625 15.45703125 C8.80628906 14.47089844 8.26101563 13.48476562 7.69921875 12.46875 C6.2890625 9.76953125 6.2890625 9.76953125 5.2890625 6.76953125 C4.6290625 6.76953125 3.9690625 6.76953125 3.2890625 6.76953125 C2.556875 6.0115625 1.8246875 5.25359375 1.0703125 4.47265625 C-1.89720953 1.58849158 -4.44638922 0.19070922 -8.2109375 -1.48046875 C-9.86609375 -2.23070313 -9.86609375 -2.23070313 -11.5546875 -2.99609375 C-22.5532596 -7.29751551 -36.86720904 -6.58922235 -47.7109375 -2.23046875 C-49.5053125 -1.64265625 -49.5053125 -1.64265625 -51.3359375 -1.04296875 C-52.1196875 -0.77484375 -52.9034375 -0.50671875 -53.7109375 -0.23046875 C-53.7109375 -0.89046875 -53.7109375 -1.55046875 -53.7109375 -2.23046875 C-51.81761216 -3.04879597 -49.92116017 -3.85989143 -48.0234375 -4.66796875 C-46.96769531 -5.12042969 -45.91195312 -5.57289062 -44.82421875 -6.0390625 C-30.10987531 -11.67002204 -12.96322639 -8.33953489 0 0 Z " fill="#2D7340" transform="translate(779.7109375,117.23046875)"/>
<path d="M0 0 C8.59340299 -0.59768645 15.07711535 -0.49205881 22 5 C27.47245251 9.89428185 29.01298589 15.67396002 29.4375 22.8125 C29.33257896 28.51321008 27.31188393 33.382021 24 38 C22.515 38.495 22.515 38.495 21 39 C22.11213133 36.1768974 23.26609473 33.46781053 24.625 30.75 C26.7906444 24.84369708 26.73523961 20.20571882 24.75 14.25 C21.33199726 7.90228063 17.8793254 4.26666405 11 2 C7.33591399 1.42069786 3.70542525 1.13622887 0 1 C0 0.67 0 0.34 0 0 Z " fill="#1A612B" transform="translate(591,133)"/>
<path d="M0 0 C1.68749368 3.12334356 2.72884347 6.23010242 3.75 9.625 C6.56467743 18.15243013 9.83263338 25.58962203 18 30 C18.57234375 30.40734375 19.1446875 30.8146875 19.734375 31.234375 C25.3900736 35.20738641 31.28669504 36.62377248 38 38 C38 38.33 38 38.66 38 39 C29.54577344 39.8129064 22.44448592 37.04096405 15.4765625 32.2734375 C8.13684901 26.18623485 2.54013525 18.23685544 0 9 C-0.1953125 6.4453125 -0.1953125 6.4453125 -0.125 4.125 C-0.10695313 3.34382812 -0.08890625 2.56265625 -0.0703125 1.7578125 C-0.04710937 1.17773438 -0.02390625 0.59765625 0 0 Z " fill="#286D34" transform="translate(335,161)"/>
<path d="M0 0 C0.99 0.33 1.98 0.66 3 1 C2.67386719 1.4846875 2.34773437 1.969375 2.01171875 2.46875 C-6.7299844 15.87785217 -7.15827348 29.35251726 -5 45 C-5.66 45 -6.32 45 -7 45 C-8.72051403 39.76991154 -9.35473177 35.18197774 -9.3125 29.6875 C-9.30831055 28.94056885 -9.30412109 28.1936377 -9.29980469 27.42407227 C-9.09094287 17.1754004 -5.65363388 8.48045081 0 0 Z " fill="#408358" transform="translate(713,126)"/>
<path d="M0 0 C1.32 0.33 2.64 0.66 4 1 C3.34 1 2.68 1 2 1 C5.67850271 6.07036859 9.54362897 10.94778397 13.5625 15.75 C14.02116455 16.30453857 14.4798291 16.85907715 14.95239258 17.43041992 C17.10731491 19.98415909 19.22310879 22.17799601 21.83984375 24.265625 C22.55269531 24.83796875 23.26554687 25.4103125 24 26 C24 26.66 24 27.32 24 28 C24.58136719 28.26167969 25.16273437 28.52335937 25.76171875 28.79296875 C28.1267634 30.06835932 29.83683549 31.49778575 31.8125 33.3125 C35.37732631 36.50947369 39.05584662 39.28839455 43 42 C42.01 42.495 42.01 42.495 41 43 C25.87516323 32.13907998 8.89244435 18.73430456 0 2 C0 1.34 0 0.68 0 0 Z " fill="#2C713A" transform="translate(0,236)"/>
<path d="M0 0 C0.66 0 1.32 0 2 0 C3.43300604 3.33383192 4.19266166 5.25511027 3.26953125 8.82421875 C-3.70040504 22.52117129 -15.17974623 32.43292906 -29 39 C-27.43561514 34.30684542 -24.08503532 32.57443046 -19.8125 30.3125 C-10.41849365 25.07076779 -3.31133062 17.30362895 0.375 7.25 C0.94627335 4.27937857 1.10555572 2.7638893 0 0 Z " fill="#28703D" transform="translate(253,48)"/>
<path d="M0 0 C3.5 0.875 3.5 0.875 5.5 2.4375 C7.02425306 6.15286683 6.63035775 9.13802491 5.5 12.875 C0.97005795 22.89496137 0.97005795 22.89496137 -3.5 25.875 C-2.39778101 22.84389778 -1.17639087 20.36507046 0.5625 17.625 C2.92719257 13.61031672 3.54715526 9.50564701 3.5 4.875 C3.17 4.215 2.84 3.555 2.5 2.875 C-0.87151492 2.8129863 -0.87151492 2.8129863 -4.5 3.875 C-6.22895607 6.34188794 -7.30498881 8.22424719 -8.4375 10.9375 C-8.73978516 11.60072266 -9.04207031 12.26394531 -9.35351562 12.94726562 C-10.09313458 14.57912331 -10.79989037 16.22580559 -11.5 17.875 C-12.87428212 13.75215365 -11.57041438 12.19171635 -9.75 8.3125 C-9.21890625 7.15621094 -8.6878125 5.99992187 -8.140625 4.80859375 C-5.89240417 0.78856079 -4.64210166 -0.16578935 0 0 Z " fill="#2E6F43" transform="translate(181.5,19.125)"/>
<path d="M0 0 C0.43828125 0.38671875 0.8765625 0.7734375 1.328125 1.171875 C7.08392359 5.89818116 12.92032599 7.92329562 20 10 C22.00231073 10.65969402 24.00298269 11.32445112 26 12 C26.90413673 15.83724172 27.10576898 19.37502274 27.0625 23.3125 C27.05347656 24.38113281 27.04445312 25.44976562 27.03515625 26.55078125 C27.02355469 27.35902344 27.01195312 28.16726562 27 29 C26.34 29.33 25.68 29.66 25 30 C24.93941406 29.09636719 24.87882812 28.19273437 24.81640625 27.26171875 C24.73261719 26.08222656 24.64882812 24.90273437 24.5625 23.6875 C24.48128906 22.51574219 24.40007812 21.34398437 24.31640625 20.13671875 C24.1132629 16.97409042 24.1132629 16.97409042 23 14 C20.27887071 12.99671063 20.27887071 12.99671063 17 12.25 C10.57760367 10.41806096 5.64427333 7.85845099 1 3 C0.67 2.01 0.34 1.02 0 0 Z " fill="#327441" transform="translate(195,187)"/>
<path d="M0 0 C1.37478516 0.01740234 1.37478516 0.01740234 2.77734375 0.03515625 C3.69644531 0.04417969 4.61554687 0.05320313 5.5625 0.0625 C6.27277344 0.07410156 6.98304688 0.08570313 7.71484375 0.09765625 C7.07289063 0.55398437 6.4309375 1.0103125 5.76953125 1.48046875 C3.62814991 2.91603085 3.62814991 2.91603085 2.83984375 4.97265625 C2.6762265 7.75414951 3.53797586 9.60546541 4.71484375 12.09765625 C5.70484375 12.09765625 6.69484375 12.09765625 7.71484375 12.09765625 C8.77256114 13.72830389 9.76757421 15.40046498 10.71484375 17.09765625 C12.2972965 18.8491479 12.2972965 18.8491479 13.71484375 20.09765625 C9.5113588 19.63060237 7.29055987 17.20676317 4.71484375 14.09765625 C-1.8767593 5.32284709 -1.8767593 5.32284709 -3.28515625 1.09765625 C-2.28515625 0.09765625 -2.28515625 0.09765625 0 0 Z " fill="#1B622A" transform="translate(560.28515625,208.90234375)"/>
<path d="M0 0 C9.24 0 18.48 0 28 0 C28 1.98 28 3.96 28 6 C27.34 5.67 26.68 5.34 26 5 C26 4.01 26 3.02 26 2 C17.75 2 9.5 2 1 2 C0.67 2.99 0.34 3.98 0 5 C0 3.35 0 1.7 0 0 Z " fill="#1E7534" transform="translate(448,110)"/>
<path d="M0 0 C3.65013634 0.24887293 5.57790891 0.65366885 8.4375 3 C10.32305914 6.62027355 10.38629794 8.68210975 9.75 12.65234375 C8.0182853 18.07297154 3.9969405 22.0987946 0 26 C-0.99 25.67 -1.98 25.34 -3 25 C-2.52949219 24.56429687 -2.05898438 24.12859375 -1.57421875 23.6796875 C3.08109464 19.22677904 6.65755121 15.49297765 7.3125 8.8125 C7.19525474 5.79517395 7.19525474 5.79517395 5 3 C2.44816596 1.79549696 2.44816596 1.79549696 0 1 C0 0.67 0 0.34 0 0 Z " fill="#2B733D" transform="translate(266,143)"/>
<path d="M0 0 C8.91 0 17.82 0 27 0 C26.67 4.29 26.34 8.58 26 13 C25.67 13 25.34 13 25 13 C25 9.37 25 5.74 25 2 C16.75 2 8.5 2 0 2 C0 1.34 0 0.68 0 0 Z " fill="#347E49" transform="translate(617,110)"/>
<path d="M0 0 C9.24 0 18.48 0 28 0 C28 0.99 28 1.98 28 3 C18.76 3 9.52 3 0 3 C0 2.01 0 1.02 0 0 Z " fill="#427E4A" transform="translate(505,197)"/>
<path d="M0 0 C0.556875 0.721875 1.11375 1.44375 1.6875 2.1875 C3.9729976 5.07086423 3.9729976 5.07086423 6.75 7.6875 C9 10 9 10 9 12 C9.81210937 12.39832031 9.81210937 12.39832031 10.640625 12.8046875 C13.37525582 14.19011305 16.06124141 15.65258458 18.75 17.125 C19.73484375 17.66382813 20.7196875 18.20265625 21.734375 18.7578125 C22.48203125 19.16773438 23.2296875 19.57765625 24 20 C24 20.66 24 21.32 24 22 C14.48955895 19.56142537 6.48396043 13.0440746 1 5 C0.28125 2.22265625 0.28125 2.22265625 0 0 Z " fill="#2F703E" transform="translate(710,176)"/>
<path d="M0 0 C-0.33 0.99 -0.66 1.98 -1 3 C-2.65 3 -4.3 3 -6 3 C-6.45890625 3.90363281 -6.9178125 4.80726562 -7.390625 5.73828125 C-8.00991623 6.9299477 -8.62973585 8.12133966 -9.25 9.3125 C-9.85328125 10.48425781 -10.4565625 11.65601563 -11.078125 12.86328125 C-12.8741165 15.7945438 -14.04278116 17.33060227 -17 19 C-19.75 19.1875 -19.75 19.1875 -22 19 C-21.443125 18.608125 -20.88625 18.21625 -20.3125 17.8125 C-14.8440766 13.52643842 -11.96077147 9.3794186 -9.11328125 3.109375 C-7.01626842 -0.86391246 -4.10652612 -0.08927231 0 0 Z " fill="#236F3A" transform="translate(252,46)"/>
<path d="M0 0 C-0.33 0.99 -0.66 1.98 -1 3 C-9.91 3 -18.82 3 -28 3 C-28 2.34 -28 1.68 -28 1 C-23.7083573 0.83271225 -19.41668206 0.66627459 -15.125 0.5 C-13.90167969 0.45230469 -12.67835938 0.40460938 -11.41796875 0.35546875 C-9.66806641 0.28779297 -9.66806641 0.28779297 -7.8828125 0.21875 C-6.80402832 0.17685547 -5.72524414 0.13496094 -4.61376953 0.09179688 C-3.07648977 0.03780685 -1.53822755 0 0 0 Z " fill="#42804D" transform="translate(691,197)"/>
<path d="M0 0 C0 0.66 0 1.32 0 2 C-2.76276177 1.47731534 -5.3260876 0.89130413 -8 0 C-14.7871804 -0.50928338 -20.01386705 -0.53028353 -26 3 C-26.99 2.67 -27.98 2.34 -29 2 C-19.72734793 -4.53300486 -10.29143602 -4.66027292 0 0 Z " fill="#276A39" transform="translate(396,136)"/>
<path d="M0 0 C0.33 0 0.66 0 1 0 C0.94199219 0.82242188 0.88398437 1.64484375 0.82421875 2.4921875 C0.50309322 10.43775057 1.27202569 16.43410891 6 23 C6.99 23.66 7.98 24.32 9 25 C9 25.66 9 26.32 9 27 C4.09725242 24.89882247 1.27603171 22.10514504 -0.75 17.1875 C-2.83426597 11.04859641 -2.34563942 6.010701 0 0 Z " fill="#277238" transform="translate(575,147)"/>
<path d="M0 0 C1.890625 0.8515625 1.890625 0.8515625 3.890625 2.8515625 C-2.69306989 1.96529588 -2.69306989 1.96529588 -5.04589844 1.32250977 C-7.3841691 0.78884624 -9.47762199 0.73853844 -11.875 0.75390625 C-12.76445312 0.75712891 -13.65390625 0.76035156 -14.5703125 0.76367188 C-15.49070312 0.77205078 -16.41109375 0.78042969 -17.359375 0.7890625 C-18.76316406 0.79583008 -18.76316406 0.79583008 -20.1953125 0.80273438 C-22.50006541 0.81449332 -24.80468727 0.83092824 -27.109375 0.8515625 C-19.13304925 -4.465988 -8.79814002 -2.88415848 0 0 Z " fill="#2D783D" transform="translate(393.109375,111.1484375)"/>
<path d="M0 0 C0.66 0.33 1.32 0.66 2 1 C1.401875 2.0725 0.80375 3.145 0.1875 4.25 C-3.97443426 12.60338578 -5.40736822 21.76311842 -6 31 C-6.33 31 -6.66 31 -7 31 C-7.62246143 20.22450103 -7.09796295 11.79426821 -2 2 C-1.34 1.34 -0.68 0.68 0 0 Z " fill="#196728" transform="translate(341,128)"/>
<path d="M0 0 C7.70966235 -0.47688633 15.40796564 -0.58290835 22 4 C23.203125 6.46875 23.203125 6.46875 24 9 C24.37125 9.928125 24.7425 10.85625 25.125 11.8125 C25.558125 12.8953125 25.558125 12.8953125 26 14 C25.34 14 24.68 14 24 14 C23.09919742 12.78317815 22.25407239 11.52487655 21.4375 10.25 C17.50310837 4.85453574 12.9307449 2.69681387 6.421875 1.54296875 C4.28839538 1.29137917 2.14394566 1.13612353 0 1 C0 0.67 0 0.34 0 0 Z " fill="#1C6632" transform="translate(745,131)"/>
<path d="M0 0 C0.66 0.33 1.32 0.66 2 1 C1.50371094 1.41507812 1.00742187 1.83015625 0.49609375 2.2578125 C-6.10226627 8.24266276 -9.40987421 15.01197012 -13 23 C-13.33 23 -13.66 23 -14 23 C-13.67504879 15.52612214 -10.29704833 9.33001881 -5.046875 4.02734375 C-3.41485801 2.62420719 -1.71355702 1.30230334 0 0 Z " fill="#276A39" transform="translate(564,117)"/>
<path d="M0 0 C0.33 0 0.66 0 1 0 C1.90957093 5.2755114 2.48077634 9.03844733 0 14 C-2.34372976 15.92520659 -3.78677948 15.99052353 -6.8125 16.125 C-11.58295815 14.44130889 -13.97453129 10.92952889 -17 7 C-16.67 6.34 -16.34 5.68 -16 5 C-15.56429687 5.5775 -15.12859375 6.155 -14.6796875 6.75 C-11.08925518 11.5202827 -11.08925518 11.5202827 -5.75 13.5625 C-2.92746091 13.04232058 -2.92746091 13.04232058 0 12 C0 8.04 0 4.08 0 0 Z " fill="#1D672F" transform="translate(138,52)"/>
<path d="M0 0 C-1.55383716 1.03589144 -3.11373756 2.06638979 -4.7265625 3.0078125 C-10.42794703 6.36294825 -15.17299814 10.49703299 -20 15 C-20.33 14.34 -20.66 13.68 -21 13 C-15.85049807 6.22433957 -9.11035054 -0.66581885 0 0 Z " fill="#1F6F31" transform="translate(364,112)"/>
<path d="M0 0 C5.47247917 1.76803173 10.75021185 3.65434998 16 6 C12.22134307 7.25955231 10.96588214 6.48087189 7.3125 5.0625 C6.31863281 4.68222656 5.32476562 4.30195312 4.30078125 3.91015625 C3.54152344 3.60980469 2.78226562 3.30945313 2 3 C2.66 5.64 3.32 8.28 4 11 C3.01 10.67 2.02 10.34 1 10 C0.67 6.7 0.34 3.4 0 0 Z " fill="#307340" transform="translate(124,99)"/>
<path d="M0 0 C5.32561154 0.32276434 8.48023436 3.28005811 12 7 C15.17686691 11.1429317 16.51519989 14.71920114 16 20 C14 17 14 17 13 14.4375 C12.13157247 11.87436838 12.13157247 11.87436838 10 10 C9.71125 9.175 9.4225 8.35 9.125 7.5 C7.77782089 4.50626865 6.95393454 4.21632599 4 3 C2.64886795 2.02418241 1.31053056 1.02970259 0 0 Z " fill="#2E793F" transform="translate(515,112)"/>
<path d="M0 0 C0.99 0.33 1.98 0.66 3 1 C-1.72838029 3.99142427 -5.26857559 5.79158457 -11 6 C-14.4375 5.0625 -14.4375 5.0625 -17 4 C-17 3.67 -17 3.34 -17 3 C-16.10796875 2.95101562 -15.2159375 2.90203125 -14.296875 2.8515625 C-12.54117188 2.73941406 -12.54117188 2.73941406 -10.75 2.625 C-9.00976562 2.52058594 -9.00976562 2.52058594 -7.234375 2.4140625 C-4.23675428 2.03030912 -2.62377715 1.33510784 0 0 Z " fill="#296B3B" transform="translate(610,208)"/>
<path d="M0 0 C1.65 0 3.3 0 5 0 C5.90413673 3.83724172 6.10576898 7.37502274 6.0625 11.3125 C6.05347656 12.38113281 6.04445312 13.44976562 6.03515625 14.55078125 C6.02355469 15.35902344 6.01195312 16.16726562 6 17 C5.34 17.33 4.68 17.66 4 18 C3.93941406 17.09636719 3.87882813 16.19273437 3.81640625 15.26171875 C3.73261719 14.08222656 3.64882812 12.90273437 3.5625 11.6875 C3.44068359 9.92986328 3.44068359 9.92986328 3.31640625 8.13671875 C2.94785841 4.48309016 2.62199195 2.62199195 0 0 Z " fill="#38814A" transform="translate(216,199)"/>
<path d="M0 0 C4.27944625 4.27944625 4.04423551 8.06689277 4.0625 13.875 C4.0466164 15.25006609 4.02749766 16.62511713 4 18 C3.01 17.67 2.02 17.34 1 17 C0.67 11.39 0.34 5.78 0 0 Z " fill="#317E49" transform="translate(794,143)"/>
<path d="M0 0 C3 1 3 1 4 3 C4.16796875 4.875 4.16796875 4.875 4.1875 7 C4.20167969 7.70125 4.21585938 8.4025 4.23046875 9.125 C4 11 4 11 2 13 C1.67 9.7 1.34 6.4 1 3 C-0.98 3.99 -0.98 3.99 -3 5 C-3.99 4.67 -4.98 4.34 -6 4 C-3.1875 1.9375 -3.1875 1.9375 0 0 Z " fill="#206931" transform="translate(614,189)"/>
<path d="M0 0 C6.19518473 0.41588046 11.26689311 1.60251894 17 4 C17 4.33 17 4.66 17 5 C10.80481527 4.58411954 5.73310689 3.39748106 0 1 C0 0.67 0 0.34 0 0 Z " fill="#1A672C" transform="translate(773,174)"/>
<path d="M0 0 C0.99 0.33 1.98 0.66 3 1 C3.97745382 4.73209641 4.15479268 6.59753904 2.75 10.25 C1 13 1 13 -2 15 C-2 12 -2 12 -0.4375 9.75 C1.45381509 6.13183201 0.84304349 3.9086562 0 0 Z " fill="#2E7142" transform="translate(249,88)"/>
<path d="M0 0 C1.37478516 0.01740234 1.37478516 0.01740234 2.77734375 0.03515625 C3.69644531 0.04417969 4.61554687 0.05320313 5.5625 0.0625 C6.27277344 0.07410156 6.98304688 0.08570313 7.71484375 0.09765625 C7.05484375 0.53078125 6.39484375 0.96390625 5.71484375 1.41015625 C5.05484375 1.96703125 4.39484375 2.52390625 3.71484375 3.09765625 C3.71484375 4.08765625 3.71484375 5.07765625 3.71484375 6.09765625 C2.06484375 6.09765625 0.41484375 6.09765625 -1.28515625 6.09765625 C-1.94515625 4.44765625 -2.60515625 2.79765625 -3.28515625 1.09765625 C-2.28515625 0.09765625 -2.28515625 0.09765625 0 0 Z " fill="#2A7A3A" transform="translate(560.28515625,208.90234375)"/>
<path d="M0 0 C0.33 0 0.66 0 1 0 C1.06058594 0.90621094 1.12117187 1.81242188 1.18359375 2.74609375 C1.64952423 9.52000612 2.18641453 16.25886322 3 23 C2.34 23 1.68 23 1 23 C0.03911617 20.11734851 -0.11670941 18.32337729 -0.09765625 15.33203125 C-0.09443359 14.43935547 -0.09121094 13.54667969 -0.08789062 12.62695312 C-0.07951172 11.69818359 -0.07113281 10.76941406 -0.0625 9.8125 C-0.05798828 8.87212891 -0.05347656 7.93175781 -0.04882812 6.96289062 C-0.03704626 4.64186288 -0.02059558 2.32096356 0 0 Z " fill="#115D25" transform="translate(705,148)"/>
<path d="M0 0 C0.66 0 1.32 0 2 0 C0.60588807 4.87939176 -1.90345657 7.10832229 -6 10 C-8.875 10.8125 -8.875 10.8125 -11 11 C-11 10.34 -11 9.68 -11 9 C-9.9275 8.443125 -8.855 7.88625 -7.75 7.3125 C-4.33165287 5.38579525 -2.36154604 3.14872805 0 0 Z " fill="#2B753A" transform="translate(401,165)"/>
<path d="M0 0 C1.27617188 0.02320312 2.55234375 0.04640625 3.8671875 0.0703125 C5.78917969 0.09738281 5.78917969 0.09738281 7.75 0.125 C9.23113281 0.15980469 9.23113281 0.15980469 10.7421875 0.1953125 C10.7421875 1.1853125 10.7421875 2.1753125 10.7421875 3.1953125 C5.4621875 2.8653125 0.1821875 2.5353125 -5.2578125 2.1953125 C-3.2578125 0.1953125 -3.2578125 0.1953125 0 0 Z " fill="#569769" transform="translate(679.2578125,75.8046875)"/>
<path d="M0 0 C1.32 0.33 2.64 0.66 4 1 C3.34 1 2.68 1 2 1 C2.39832031 1.53109375 2.79664063 2.0621875 3.20703125 2.609375 C5.8046875 6.07291667 8.40234375 9.53645833 11 13 C10.67 13.66 10.34 14.32 10 15 C0 3.95890411 0 3.95890411 0 0 Z " fill="#226936" transform="translate(0,236)"/>
<path d="M0 0 C2.97 0.33 5.94 0.66 9 1 C9 1.33 9 1.66 9 2 C6.69 2 4.38 2 2 2 C2 7.28 2 12.56 2 18 C1.67 18 1.34 18 1 18 C0.67 12.06 0.34 6.12 0 0 Z " fill="#09601D" transform="translate(663,77)"/>
<path d="M0 0 C0 2 0 2 -1.6796875 3.69140625 C-2.40414062 4.30886719 -3.12859375 4.92632812 -3.875 5.5625 C-4.59429688 6.18253906 -5.31359375 6.80257812 -6.0546875 7.44140625 C-8 9 -8 9 -10 10 C-9.43867066 6.4628562 -8.30442253 5.00738321 -5.5625 2.75 C-4.94503906 2.22921875 -4.32757812 1.7084375 -3.69140625 1.171875 C-2 0 -2 0 0 0 Z " fill="#29713E" transform="translate(742,133)"/>
<path d="M0 0 C0.99 0.33 1.98 0.66 3 1 C-2.18678815 9.44646925 -2.18678815 9.44646925 -5 13 C-4.54996653 7.37458159 -3.31558515 4.38512875 0 0 Z " fill="#236437" transform="translate(713,126)"/>
<path d="M0 0 C3.96 1.98 7.92 3.96 12 6 C12 6.66 12 7.32 12 8 C7.39571066 6.68448876 3.81679612 4.90803514 0 2 C0 1.34 0 0.68 0 0 Z " fill="#276A35" transform="translate(722,190)"/>
<path d="M0 0 C0.66 0 1.32 0 2 0 C3.40234375 1.64453125 3.40234375 1.64453125 4.9375 3.8125 C6.80547282 6.43530583 8.65869193 8.78449355 11 11 C7.20450741 10.45418801 5.69020705 8.94590705 3.25 6.0625 C2.63640625 5.35222656 2.0228125 4.64195312 1.390625 3.91015625 C0 2 0 2 0 0 Z " fill="#276836" transform="translate(554,181)"/>
<path d="M0 0 C-0.33 0.99 -0.66 1.98 -1 3 C-2.3921875 3.185625 -2.3921875 3.185625 -3.8125 3.375 C-7.13925235 3.81533082 -7.13925235 3.81533082 -10 6 C-9.6875 4.125 -9.6875 4.125 -9 2 C-5.5647952 -0.29013653 -4.014669 -0.17842973 0 0 Z " fill="#2F7841" transform="translate(248,86)"/>
<path d="M0 0 C2.83082083 2.83082083 6 6.89167162 6 11 C5.34 11 4.68 11 4 11 C2.4921875 9.03125 2.4921875 9.03125 0.875 6.5 C0.33617187 5.6646875 -0.20265625 4.829375 -0.7578125 3.96875 C-1.16773438 3.3190625 -1.57765625 2.669375 -2 2 C-1.34 2 -0.68 2 0 2 C0 1.34 0 0.68 0 0 Z " fill="#307643" transform="translate(765,134)"/>
<path d="M0 0 C0.33 0.99 0.66 1.98 1 3 C-0.328125 5.04296875 -0.328125 5.04296875 -2.25 7.1875 C-3.18585938 8.26064453 -3.18585938 8.26064453 -4.140625 9.35546875 C-6 11 -6 11 -9 11 C-8.51789063 10.45730469 -8.03578125 9.91460937 -7.5390625 9.35546875 C-6.90742188 8.64003906 -6.27578125 7.92460938 -5.625 7.1875 C-4.68527344 6.12595703 -4.68527344 6.12595703 -3.7265625 5.04296875 C-1.859401 2.91196181 -1.859401 2.91196181 0 0 Z " fill="#206936" transform="translate(251,61)"/>
<path d="M0 0 C0.33 0.99 0.66 1.98 1 3 C-0.43359375 5.04296875 -0.43359375 5.04296875 -2.4375 7.1875 C-3.09621094 7.90292969 -3.75492188 8.61835938 -4.43359375 9.35546875 C-4.95050781 9.89816406 -5.46742188 10.44085938 -6 11 C-6.66 10.67 -7.32 10.34 -8 10 C-5.36 6.7 -2.72 3.4 0 0 Z " fill="#1E6631" transform="translate(201,265)"/>
<path d="M0 0 C0.66 0 1.32 0 2 0 C0.81819916 5.02265357 -0.44992282 8.0949151 -4 12 C-3.45660208 7.43545749 -2.20536179 4.0271824 0 0 Z " fill="#256939" transform="translate(173,25)"/>
<path d="M0 0 C3 1 3 1 4.75 3.8125 C6.05483179 7.13982105 6.02866653 7.79584277 5 11 C4.16151196 9.54462432 3.32936066 8.08559627 2.5 6.625 C1.80390625 5.40683594 1.80390625 5.40683594 1.09375 4.1640625 C0 2 0 2 0 0 Z " fill="#206733" transform="translate(787,127)"/>
<path d="M0 0 C5.03985731 0.44469329 7.37634988 2.71343362 11 6 C10.67 6.99 10.34 7.98 10 9 C9.7525 8.38125 9.505 7.7625 9.25 7.125 C7.75212333 4.57860966 6.65917588 4.17316583 4 3 C2.64886795 2.02418241 1.31053056 1.02970259 0 0 Z " fill="#296C37" transform="translate(515,112)"/>
<path d="M0 0 C0.33 0.99 0.66 1.98 1 3 C-0.65 4.65 -2.3 6.3 -4 8 C-4.99 7.67 -5.98 7.34 -7 7 C-4.69 4.69 -2.38 2.38 0 0 Z " fill="#226535" transform="translate(270,161)"/>
<path d="M0 0 C2.2344598 4.03292745 2.54496743 7.44967434 3 12 C2.34 12 1.68 12 1 12 C0.03929566 9.11788698 -0.10581883 7.30149956 -0.0625 4.3125 C-0.05347656 3.50425781 -0.04445313 2.69601563 -0.03515625 1.86328125 C-0.02355469 1.24839844 -0.01195312 0.63351563 0 0 Z " fill="#166824" transform="translate(335,161)"/>
<path d="M0 0 C0.33 0 0.66 0 1 0 C1.32332002 4.63425362 0.8644432 7.28683289 -2 11 C-2.99 11.33 -3.98 11.66 -5 12 C-3.41037341 7.96479403 -1.71767682 3.98188718 0 0 Z " fill="#2B6E3E" transform="translate(617,160)"/>
<path d="M0 0 C0.66 0.33 1.32 0.66 2 1 C-0.31 3.64 -2.62 6.28 -5 9 C-5.33 8.34 -5.66 7.68 -6 7 C-4.02 4.69 -2.04 2.38 0 0 Z " fill="#2C713C" transform="translate(349,118)"/>
<path d="M0 0 C4.55737263 0.43820891 7.57653445 0.85041169 11 4 C3.57142857 3 3.57142857 3 0 2 C0 1.34 0 0.68 0 0 Z " fill="#207333" transform="translate(386,110)"/>
<path d="M0 0 C0 4.38968456 -2.12805101 5.76905739 -5 9 C-5.99 8.67 -6.98 8.34 -8 8 C-6.625 6.5 -6.625 6.5 -5 5 C-4.34 5 -3.68 5 -3 5 C-2.690625 4.360625 -2.38125 3.72125 -2.0625 3.0625 C-1 1 -1 1 0 0 Z " fill="#2B6D3E" transform="translate(176,46)"/>
<path d="M0 0 C0.33 0 0.66 0 1 0 C1.12375 0.7425 1.2475 1.485 1.375 2.25 C1.9569895 4.81075381 2.80421396 6.68814698 4 9 C4 9.66 4 10.32 4 11 C3.01 11 2.02 11 1 11 C-0.17571451 7.32589215 -0.07366746 3.83070817 0 0 Z " fill="#307A40" transform="translate(547,160)"/>
<path d="M0 0 C-1.36944102 2.94956528 -2.87830409 5.52468811 -5 8 C-5.66 8 -6.32 8 -7 8 C-4.18918919 0 -4.18918919 0 0 0 Z " fill="#28623A" transform="translate(583,138)"/>
<path d="M0 0 C5.78461538 4.30769231 5.78461538 4.30769231 6.875 7.8125 C6.936875 8.8953125 6.936875 8.8953125 7 10 C4.4000702 7.48972295 2.00908773 5.0136316 0 2 C0 1.34 0 0.68 0 0 Z " fill="#1C5E2D" transform="translate(397,138)"/>
<path d="M0 0 C0.66 0 1.32 0 2 0 C2.99 2.64 3.98 5.28 5 8 C4.01 8 3.02 8 2 8 C0.23537317 4.91190305 0 3.76687864 0 0 Z " fill="#146225" transform="translate(550,172)"/>
<path d="M0 0 C3.36016893 1.12005631 4.69064913 2.37211797 7 5 C7 5.66 7 6.32 7 7 C4.50638429 5.79618552 2.31856917 4.54571278 0 3 C0 2.01 0 1.02 0 0 Z " fill="#206E33" transform="translate(577,167)"/>
<path d="M0 0 C0.66 0.33 1.32 0.66 2 1 C0.68 3.31 -0.64 5.62 -2 8 C-2.66 8 -3.32 8 -4 8 C-2.25 2.25 -2.25 2.25 0 0 Z " fill="#327640" transform="translate(341,128)"/>
<path d="M0 0 C0.66 0.33 1.32 0.66 2 1 C-1.465 3.97 -1.465 3.97 -5 7 C-3.92643531 2.70574125 -3.4915227 2.25259529 0 0 Z " fill="#216430" transform="translate(564,117)"/>
</svg>
